<?xml version="1.0" encoding="utf-8"?>
<!-- Generator: Adobe Illustrator 19.0.0, SVG Export Plug-In . SVG Version: 6.00 Build 0)  -->
<svg version="1.1" id="Layer_1" xmlns="http://www.w3.org/2000/svg" xmlns:xlink="http://www.w3.org/1999/xlink" x="0px" y="0px"
	 viewBox="-399 100.5 100 100" style="enable-background:new -399 100.5 100 100;" xml:space="preserve">
<style type="text/css">
	.st0{fill:none;stroke:#000000;stroke-width:3;stroke-linecap:round;stroke-linejoin:round;}
</style>
<title>amplifier</title>
<g>
	<path class="st0" d="M-335.9,128.5c-7,7-29.8,7.6-29.8,7.6c-3.1,0.5-5.4,3.1-5.4,6.2v6c0,3.1,2.3,5.8,5.3,6.3
		c0,0,21.3-0.8,29.8,7.6C-329.9,168.2-329.9,122.6-335.9,128.5z"/>
	<path class="st0" d="M-354,155.6l2.1,10c0.4,2.3-1,4.5-3.3,4.9l0,0c-2.3,0.4-4.5-1-4.9-3.3l-2.3-12.7v-18.2"/>
	<path class="st0" d="M-331,141.2c2.7,0,4.9,2.2,4.9,4.9c0,2.7-2.2,4.9-4.9,4.9"/>
</g>
</svg>
