<?xml version="1.0" encoding="utf-8"?>
<!-- Generator: Adobe Illustrator 19.0.0, SVG Export Plug-In . SVG Version: 6.00 Build 0)  -->
<svg version="1.1" id="Layer_1" xmlns="http://www.w3.org/2000/svg" xmlns:xlink="http://www.w3.org/1999/xlink" x="0px" y="0px"
	 viewBox="-399 100.5 100 100" style="enable-background:new -399 100.5 100 100;" xml:space="preserve">
<style type="text/css">
	.st0{fill:none;stroke:#000000;stroke-width:3;stroke-linecap:round;stroke-linejoin:round;}
</style>
<title>command</title>
<g>
	<path class="st0" d="M-342,156.4v-20.8c0-3.5,2.9-6.4,6.4-6.4s6.4,2.9,6.4,6.4c0,3.5-2.9,6.3-6.4,6.4h-19.5"/>
	<path class="st0" d="M-354.9,155.4v-19.8c0-3.5-2.9-6.4-6.4-6.4s-6.4,2.9-6.4,6.4c0,3.5,2.9,6.4,6.4,6.4h6.2"/>
	<path class="st0" d="M-354.9,155.4v5.9c0,3.5-2.9,6.4-6.4,6.4c-3.5,0-6.4-2.9-6.4-6.4s2.9-6.4,6.4-6.4h19.5"/>
	<path class="st0" d="M-342,156.4v4.9c0,3.5,2.9,6.4,6.4,6.4c3.5,0,6.4-2.9,6.4-6.4s-2.9-6.4-6.4-6.4h-6.2"/>
</g>
</svg>
