<?xml version="1.0" encoding="utf-8"?>
<!-- Generator: Adobe Illustrator 19.0.0, SVG Export Plug-In . SVG Version: 6.00 Build 0)  -->
<svg version="1.1" id="Layer_1" xmlns="http://www.w3.org/2000/svg" xmlns:xlink="http://www.w3.org/1999/xlink" x="0px" y="0px"
	 viewBox="-399 100.5 100 100" style="enable-background:new -399 100.5 100 100;" xml:space="preserve">
<style type="text/css">
	.st0{fill:none;stroke:#000000;stroke-width:3;stroke-linecap:round;stroke-linejoin:round;}
</style>
<title>headset</title>
<g>
	<path class="st0" d="M-369.7,160.5v-10.8c0-11.2,9.1-20.2,20.3-20.2c11.2,0,20.2,9.1,20.2,20.2v10.8"/>
	<path class="st0" d="M-365.3,150h2.4l0,0v16l0,0h-2.7c-2.3,0-4.1-1.8-4.1-4.1v-7.6C-369.7,151.9-367.7,150-365.3,150z"/>
	<path class="st0" d="M-333.5,166h-2.4l0,0v-16l0,0h2.4c2.4,0,4.3,1.9,4.3,4.3v7.3C-329.2,164.1-331.1,166-333.5,166z"/>
</g>
</svg>
