<?xml version="1.0" encoding="utf-8"?>
<!-- Generator: Adobe Illustrator 19.0.0, SVG Export Plug-In . SVG Version: 6.00 Build 0)  -->
<svg version="1.1" id="Layer_1" xmlns="http://www.w3.org/2000/svg" xmlns:xlink="http://www.w3.org/1999/xlink" x="0px" y="0px"
	 viewBox="-399 100.5 100 100" style="enable-background:new -399 100.5 100 100;" xml:space="preserve">
<style type="text/css">
	.st0{fill:none;stroke:#000000;stroke-width:3;stroke-linecap:round;stroke-linejoin:round;}
</style>
<title>keyboard</title>
<g>
	<path class="st0" d="M-373.9,131.5h48.8c1.4,0,2.6,1.2,2.6,2.6v27.8c0,1.4-1.2,2.6-2.6,2.6h-48.8c-1.4,0-2.6-1.2-2.6-2.6v-27.8
		C-376.5,132.7-375.3,131.5-373.9,131.5z"/>
	<line class="st0" x1="-359.5" y1="158" x2="-339.5" y2="158"/>
	<line class="st0" x1="-363.9" y1="145" x2="-360.5" y2="145"/>
	<line class="st0" x1="-354.4" y1="139" x2="-357.8" y2="139"/>
	<line class="st0" x1="-365.6" y1="139" x2="-369" y2="139"/>
	<line class="st0" x1="-330" y1="139" x2="-333.4" y2="139"/>
	<line class="st0" x1="-351.8" y1="145" x2="-348.4" y2="145"/>
	<line class="st0" x1="-342.3" y1="139" x2="-345.6" y2="139"/>
	<line class="st0" x1="-369" y1="151" x2="-365.6" y2="151"/>
	<line class="st0" x1="-345.6" y1="151" x2="-342.3" y2="151"/>
	<line class="st0" x1="-333.4" y1="151" x2="-330" y2="151"/>
	<line class="st0" x1="-336.1" y1="145" x2="-339.5" y2="145"/>
	<line class="st0" x1="-357.8" y1="151" x2="-354.4" y2="151"/>
</g>
</svg>
