<?xml version="1.0" encoding="utf-8"?>
<!-- Generator: Adobe Illustrator 19.0.0, SVG Export Plug-In . SVG Version: 6.00 Build 0)  -->
<svg version="1.1" id="Layer_1" xmlns="http://www.w3.org/2000/svg" xmlns:xlink="http://www.w3.org/1999/xlink" x="0px" y="0px"
	 viewBox="-399 100.5 100 100" style="enable-background:new -399 100.5 100 100;" xml:space="preserve">
<style type="text/css">
	.st0{fill:none;stroke:#000000;stroke-width:3;stroke-linecap:round;stroke-linejoin:round;}
</style>
<title>move</title>
<g>
	<polyline class="st0" points="-347.1,145.9 -340.6,152.4 -347.1,158.9 	"/>
	<path class="st0" d="M-340.6,152.4h-14.6c-5.5,0-5.5-3.9-5.5-3.9"/>
	<polyline class="st0" points="-347,127.1 -342.7,127.1 -342.7,130.6 	"/>
	<polyline class="st0" points="-368.5,130.6 -368.5,127.1 -364.6,127.1 	"/>
	<line class="st0" x1="-368.5" y1="153.5" x2="-368.5" y2="148.3"/>
	<line class="st0" x1="-355.8" y1="162.9" x2="-358.4" y2="162.9"/>
	<line class="st0" x1="-358.4" y1="127.1" x2="-353.2" y2="127.1"/>
	<line class="st0" x1="-368.5" y1="142" x2="-368.5" y2="136.8"/>
	<polyline class="st0" points="-364.6,162.9 -368.5,162.9 -368.5,159.7 	"/>
	<polyline class="st0" points="-355.8,159.1 -355.8,170.4 -330.1,170.4 -330.1,134.7 -355.8,134.7 -355.8,145.7 	"/>
</g>
</svg>
