<?xml version="1.0" encoding="utf-8"?>
<!-- Generator: Adobe Illustrator 19.0.0, SVG Export Plug-In . SVG Version: 6.00 Build 0)  -->
<svg version="1.1" id="Layer_1" xmlns="http://www.w3.org/2000/svg" xmlns:xlink="http://www.w3.org/1999/xlink" x="0px" y="0px"
	 viewBox="-399 100.5 100 100" style="enable-background:new -399 100.5 100 100;" xml:space="preserve">
<style type="text/css">
	.st0{fill:none;stroke:#000000;stroke-width:3;stroke-linecap:round;stroke-linejoin:round;}
</style>
<title>router</title>
<g>
	<g>
		<path class="st0" d="M-333,166.3h-31.9c-1.8,0-3.3-1.3-3.5-3.1l-0.5-4.1c-0.1-1,0.5-1.9,1.5-2c0,0,0,0,0,0h36.6
			c1,0,1.8,0.8,1.8,1.8c0,0.1,0,0.2,0,0.2l-0.5,4.1C-329.7,164.9-331.2,166.3-333,166.3z"/>
		<path class="st0" d="M-333,137.6c-8.8-8.8-23.1-8.8-32,0c0,0,0,0,0,0l0,0"/>
		<path class="st0" d="M-338.3,143c-5.9-5.9-15.4-5.9-21.3,0c0,0,0,0,0,0l0,0"/>
		<path class="st0" d="M-354.3,148.3L-354.3,148.3c2.9-2.9,7.7-2.9,10.7,0l0,0"/>
	</g>
</g>
</svg>
