<?xml version="1.0" encoding="utf-8"?>
<!-- Generator: Adobe Illustrator 19.0.0, SVG Export Plug-In . SVG Version: 6.00 Build 0)  -->
<svg version="1.1" id="Layer_1" xmlns="http://www.w3.org/2000/svg" xmlns:xlink="http://www.w3.org/1999/xlink" x="0px" y="0px"
	 viewBox="-399 100.5 100 100" style="enable-background:new -399 100.5 100 100;" xml:space="preserve">
<style type="text/css">
	.st0{fill:none;stroke:#000000;stroke-width:3;stroke-linecap:round;stroke-linejoin:round;}
</style>
<title>star</title>
<g>
	<path class="st0" d="M-328.8,146.4c1.2-1.1,1.3-3,0.1-4.2c-0.5-0.5-1.1-0.8-1.8-0.9l-9.4-1.4c-1-0.1-1.8-0.8-2.3-1.7l-4.2-8.5
		c-0.7-1.5-2.5-2.2-4-1.5c-0.6,0.3-1.2,0.8-1.5,1.5l-4.2,8.5c-0.4,0.9-1.3,1.5-2.3,1.7l-9.4,1.4c-1.6,0.2-2.8,1.7-2.6,3.3
		c0.1,0.7,0.4,1.3,0.9,1.8l6.8,6.6c0.7,0.7,1,1.7,0.9,2.7l-1.6,9.3c-0.3,1.6,0.7,3.2,2.4,3.5c0.7,0.1,1.4,0,2-0.3l8.4-4.4
		c0.9-0.5,1.9-0.5,2.8,0l8.4,4.4c1.4,0.8,3.3,0.3,4.1-1.2c0.3-0.6,0.5-1.3,0.3-2l-1.6-9.3c-0.2-1,0.2-2,0.9-2.7L-328.8,146.4z"/>
</g>
</svg>
